<svg width="164" height="35" viewBox="0 0 164 35" fill="none" xmlns="http://www.w3.org/2000/svg">
<path d="M0.173889 23.3943L11.8335 18.3411L18.5445 22.1308L19.9002 34.564L11.6301 34.4979L12.8503 25.8539L11.4267 25.0561L4.4445 30.3753L0.173889 23.3943Z" fill="#81818B"/>
<path d="M19.2906 21.5985L29.5945 28.9783L33.6616 21.8645L25.3913 18.6066V17.0109L33.6616 13.6866L29.5945 6.63892L19.2906 14.019V21.5985Z" fill="#81818B"/>
<path d="M18.5445 13.4209L19.9002 0.987793L11.6301 1.12078L12.8503 9.76406L11.4267 10.5619L4.37672 5.24297L0.173889 12.1576L11.8335 17.2107L18.5445 13.4209Z" fill="#81818B"/>
<path d="M61.2524 16.2857V27.9339H65.7034V13.0894H59.2217V16.2857H61.2524Z" fill="#81818B"/>
<path d="M61.1133 11.0038C61.5213 11.4191 62.1429 11.6267 62.9771 11.6267C63.8124 11.6267 64.424 11.4191 64.813 11.0038C65.2215 10.5702 65.4252 10.0284 65.4252 9.37848C65.4252 8.71021 65.2215 8.16846 64.813 7.75319C64.424 7.3198 63.8124 7.10303 62.9771 7.10303C62.1429 7.10303 61.5213 7.3198 61.1133 7.75319C60.7243 8.16846 60.5295 8.71021 60.5295 9.37848C60.5295 10.0284 60.7243 10.5702 61.1133 11.0038Z" fill="#81818B"/>
<path d="M45.7576 27.6088C47.0186 28.1686 48.5669 28.4487 50.4028 28.4487C52.128 28.4487 53.6111 28.1865 54.8543 27.663C56.097 27.1395 57.0519 26.4079 57.7192 25.4687C58.4059 24.5116 58.7487 23.4011 58.7487 22.1369C58.7487 20.909 58.4248 19.8706 57.7754 19.0218C57.1443 18.155 56.2639 17.4778 55.1325 16.9903C54.0012 16.4845 52.6934 16.1685 51.2097 16.0423L49.6521 15.9068C48.7249 15.8344 48.0571 15.5908 47.6492 15.1753C47.2407 14.76 47.037 14.2723 47.037 13.7127C47.037 13.2791 47.1489 12.8819 47.3704 12.5207C47.5935 12.1415 47.9269 11.8435 48.3721 11.6268C48.8362 11.4102 49.4016 11.3018 50.0694 11.3018C50.774 11.3018 51.3583 11.4281 51.8219 11.6811C51.9237 11.7345 52.0209 11.7916 52.1117 11.8523L52.1337 11.8673C52.1678 11.8902 52.2015 11.914 52.234 11.938C52.5159 12.1476 52.7401 12.396 52.9071 12.6833C53.1475 13.0806 53.2688 13.5229 53.2688 14.0106H57.7192C57.7192 12.7103 57.4131 11.5816 56.8015 10.6246C56.1899 9.64941 55.3089 8.90002 54.1592 8.37612C53.0273 7.83438 51.6644 7.56348 50.0694 7.56348C48.5485 7.56348 47.2318 7.81647 46.1188 8.32205C45.0063 8.80972 44.1348 9.51396 43.5043 10.4348C42.8916 11.3559 42.5856 12.4485 42.5856 13.7127C42.5856 15.4643 43.1888 16.8728 44.3942 17.9384C45.5996 19.0039 47.2134 19.6178 49.2347 19.7803L50.7651 19.9158C52.0072 20.0242 52.9071 20.268 53.4636 20.6471C54.0195 21.0083 54.2978 21.5049 54.2978 22.1369C54.2978 22.4274 54.249 22.6999 54.1513 22.9544C54.0789 23.1434 53.9791 23.3224 53.8531 23.4915C53.5554 23.8705 53.1202 24.1684 52.5453 24.3855C51.9704 24.602 51.2565 24.7103 50.4028 24.7103C49.4573 24.7103 48.6876 24.5841 48.0944 24.3309C47.5006 24.0602 47.0559 23.708 46.7583 23.2749C46.4805 22.8412 46.3419 22.3718 46.3419 21.8661H41.9183C41.9183 23.1483 42.2427 24.2861 42.8916 25.279C43.5411 26.2544 44.496 27.0312 45.7576 27.6088Z" fill="#81818B"/>
<path d="M75.6348 28.1233C74.095 28.1233 72.8528 27.943 71.9068 27.5815C70.9607 27.2025 70.2656 26.5792 69.8204 25.7125C69.3941 24.8275 69.1805 23.6359 69.1805 22.1368V16.2587H66.8715V13.0895H69.1805V9.08057H73.3253V13.0895H77.7768V16.2587H73.3253V22.2996C73.3253 23.0038 73.5112 23.5455 73.8818 23.9245C74.2714 24.286 74.8184 24.4664 75.5235 24.4664H77.7768V28.1233H75.6348Z" fill="#81818B"/>
<path fill-rule="evenodd" clip-rule="evenodd" d="M83.4793 28.2237C84.4805 28.6569 85.6308 28.8738 86.9286 28.8738C88.208 28.8738 89.3399 28.6569 90.3227 28.2237C91.3055 27.7901 92.1218 27.1852 92.7707 26.4089C93.4196 25.6321 93.8559 24.7471 94.078 23.7542H89.9888C89.8034 24.2057 89.4512 24.5847 88.9319 24.8916C88.4127 25.1986 87.7444 25.3525 86.9286 25.3525C86.423 25.3525 85.9715 25.2939 85.5735 25.1775C85.2706 25.089 84.9992 24.9668 84.7587 24.8107C84.2022 24.4496 83.7943 23.9435 83.5344 23.2936C83.4625 23.1085 83.4011 22.9148 83.3491 22.7131C83.2961 22.5087 83.2536 22.2961 83.2215 22.0747H94.3562V20.6118C94.3562 19.2574 94.0596 18.0114 93.4664 16.8738C92.8726 15.7178 92.01 14.7878 90.8792 14.0835C89.7662 13.3612 88.3938 13 86.7616 13C85.5189 13 84.4059 13.2168 83.4231 13.6502C82.4592 14.0655 81.6523 14.6343 81.0034 15.3567C80.3545 16.079 79.8537 16.9009 79.5003 17.8219C79.167 18.7246 79 19.6727 79 20.6659V21.2077C79 22.165 79.167 23.1039 79.5003 24.0249C79.8537 24.9279 80.3545 25.7494 81.0034 26.4899C81.6707 27.2125 82.4954 27.7901 83.4793 28.2237ZM83.2982 19.3961C83.3102 19.3387 83.3234 19.2823 83.3375 19.2267C83.3764 19.0736 83.4205 18.9268 83.4714 18.7866C83.4998 18.7067 83.5302 18.6288 83.5628 18.5531C83.8405 17.8849 84.249 17.3793 84.7866 17.0363C84.9876 16.908 85.2055 16.8037 85.4391 16.7235C85.8329 16.5889 86.2739 16.5215 86.7616 16.5215C87.5223 16.5215 88.1523 16.6932 88.6532 17.0363C89.1724 17.3612 89.5619 17.8398 89.8218 18.4718C89.8428 18.5228 89.8628 18.5748 89.8822 18.6273C89.9126 18.7111 89.9415 18.797 89.9678 18.8851C90.0071 19.0162 90.0413 19.1519 90.0717 19.2921C90.0938 19.3954 90.1127 19.5013 90.1295 19.6096H83.2551C83.2682 19.5372 83.2824 19.4662 83.2982 19.3961Z" fill="#81818B"/>
<path d="M95.8499 27.9339V13.0893H99.3832V16.8281C99.4309 16.6058 99.4855 16.3925 99.5464 16.1879C99.5989 16.0156 99.6551 15.8494 99.7165 15.6898C100.106 14.6784 100.69 13.9201 101.469 13.4143C102.248 12.8906 103.203 12.6289 104.335 12.6289H104.529C105.679 12.6289 106.634 12.8906 107.395 13.4143C108.174 13.9201 108.758 14.6784 109.147 15.6898L109.178 15.7661L109.204 15.8359C109.222 15.7866 109.24 15.738 109.258 15.6898C109.666 14.6784 110.26 13.9201 111.039 13.4143C111.818 12.8906 112.773 12.6289 113.905 12.6289H114.099C115.249 12.6289 116.213 12.8906 116.992 13.4143C117.79 13.9201 118.393 14.6784 118.8 15.6898C119.208 16.7011 119.413 17.9653 119.413 19.4822V27.9339H114.961V19.2383C114.961 18.4256 114.739 17.7666 114.294 17.261C113.867 16.7552 113.255 16.5024 112.458 16.5024C111.66 16.5024 111.03 16.7643 110.566 17.288C110.103 17.7936 109.871 18.4708 109.871 19.3197V27.9339H105.392V19.2383C105.392 18.4256 105.169 17.7666 104.724 17.261C104.298 16.7552 103.694 16.5024 102.916 16.5024C102.1 16.5024 101.46 16.7643 100.996 17.288C100.533 17.7936 100.301 18.4708 100.301 19.3197V27.9339H95.8499Z" fill="#81818B"/>
<path fill-rule="evenodd" clip-rule="evenodd" d="M131.303 25.0736V27.9341H134.835V18.8322C134.835 17.4597 134.557 16.3402 134.001 15.4732C133.444 14.5883 132.629 13.9293 131.553 13.4959C130.496 13.0625 129.188 12.8457 127.63 12.8457C127.293 12.8457 126.94 12.8492 126.573 12.8564C126.356 12.8608 126.133 12.8662 125.906 12.8728C125.293 12.8909 124.7 12.9179 124.125 12.9541L123.686 12.9829C123.46 12.9982 123.249 13.0132 123.049 13.0285C122.9 13.0398 122.757 13.0512 122.623 13.0625V16.7195C123.198 16.6832 123.838 16.6471 124.543 16.6111C124.74 16.601 124.935 16.5916 125.129 16.5829C125.409 16.5703 125.685 16.5593 125.959 16.5498C126.175 16.5421 126.389 16.5353 126.601 16.5297C127.269 16.5116 127.807 16.5026 128.215 16.5026C129.03 16.5026 129.624 16.6922 129.995 17.0715C130.366 17.4507 130.551 18.0196 130.551 18.7782V18.8322H127.797C126.444 18.8322 125.247 19.0038 124.208 19.347C123.17 19.672 122.363 20.1866 121.789 20.8909C121.213 21.5773 120.926 22.4621 120.926 23.5456C120.926 24.5389 121.158 25.3967 121.621 26.1193C122.085 26.8231 122.725 27.3649 123.541 27.7439C124.376 28.1234 125.34 28.3131 126.434 28.3131C127.491 28.3131 128.382 28.1234 129.105 27.7439C129.847 27.3649 130.422 26.8231 130.83 26.1193C130.902 26.0003 130.968 25.8772 131.031 25.7493C131.119 25.5685 131.198 25.3783 131.267 25.1787L131.303 25.0736ZM130.551 22.4351V21.2431H127.769C126.99 21.2431 126.388 21.4327 125.961 21.812C125.553 22.1732 125.349 22.6698 125.349 23.3018C125.349 23.5993 125.4 23.8696 125.501 24.1134C125.604 24.3577 125.757 24.5747 125.961 24.7644C126.388 25.126 126.99 25.3063 127.769 25.3063C127.917 25.3063 128.061 25.2991 128.199 25.2853C128.312 25.2736 128.422 25.2571 128.529 25.236C128.732 25.1958 128.925 25.1376 129.105 25.0624C129.513 24.8821 129.847 24.5841 130.106 24.1684C130.366 23.7532 130.515 23.1751 130.551 22.4351Z" fill="#81818B"/>
<path d="M137.499 27.934V13.0894H141.033V17.9891C141.202 16.5904 141.628 15.4626 142.312 14.6064C143.24 13.4687 144.574 12.8999 146.318 12.8999H146.903V16.638H145.79C144.566 16.638 143.62 16.9629 142.952 17.6131C142.284 18.2452 141.95 19.1663 141.95 20.376V27.934H137.499Z" fill="#81818B"/>
<path d="M152.547 20.9994H154.021L158.834 27.9342H163.841L157.739 19.4175L162.756 13.0897H158.083L152.547 20.1479V8.15967H148.096V27.9342H152.547V20.9994Z" fill="#81818B"/>
</svg>
