<svg width="170" height="38" viewBox="0 0 170 38" fill="none" xmlns="http://www.w3.org/2000/svg">
<path d="M52.2482 9.80029C53.8358 9.80029 55.2097 10.0558 56.3705 10.5669C57.548 11.0779 58.4521 11.8033 59.0837 12.7431C59.7152 13.6828 60.0313 14.7956 60.0313 16.0815C60.0313 17.3509 59.7152 18.4637 59.0837 19.4199C58.4521 20.3596 57.548 21.085 56.3705 21.5963C55.2097 22.0906 53.8358 22.338 52.2482 22.338H48.6388V27.1108H44.4918V9.80029H52.2482ZM52.0182 19.0737C53.2635 19.0737 54.2111 18.8182 54.8595 18.3071C55.5084 17.7795 55.8323 17.0377 55.8323 16.0815C55.8323 15.1088 55.5084 14.3669 54.8595 13.8559C54.2111 13.3283 53.2635 13.0645 52.0182 13.0645H48.6388V19.0737H52.0182Z" fill="#81818B"/>
<path d="M65.2451 15.5625C65.7223 14.9195 66.3628 14.4331 67.1645 14.1034C67.984 13.7737 68.9222 13.6089 69.9806 13.6089V17.1699C69.5369 17.1369 69.2382 17.1204 69.0844 17.1204C67.9409 17.1204 67.0453 17.4337 66.3969 18.0601C65.748 18.67 65.4236 19.5933 65.4236 20.8297V27.1111H61.4304V13.8067H65.2451V15.5625Z" fill="#81818B"/>
<path d="M77.5038 27.3086C76.0533 27.3086 74.7476 27.0204 73.5873 26.4432C72.4439 25.8499 71.5477 25.0335 70.8993 23.9949C70.251 22.9564 69.9265 21.7776 69.9265 20.4588C69.9265 19.1399 70.251 17.9612 70.8993 16.9225C71.5477 15.8839 72.4439 15.0762 73.5873 14.4991C74.7476 13.9056 76.0533 13.6089 77.5038 13.6089C78.9544 13.6089 80.2517 13.9056 81.3951 14.4991C82.5386 15.0762 83.4348 15.8839 84.0837 16.9225C84.7315 17.9612 85.056 19.1399 85.056 20.4588C85.056 21.7776 84.7315 22.9564 84.0837 23.9949C83.4348 25.0335 82.5386 25.8499 81.3951 26.4432C80.2517 27.0204 78.9544 27.3086 77.5038 27.3086ZM77.5038 24.1433C78.5281 24.1433 79.3644 23.8139 80.0128 23.1542C80.6785 22.4784 81.0108 21.5801 81.0108 20.4588C81.0108 19.3378 80.6785 18.4475 80.0128 17.788C79.3644 17.1121 78.5281 16.7742 77.5038 16.7742C76.4801 16.7742 75.6354 17.1121 74.9697 17.788C74.304 18.4475 73.9711 19.3378 73.9711 20.4588C73.9711 21.5801 74.304 22.4784 74.9697 23.1542C75.6354 23.8139 76.4801 24.1433 77.5038 24.1433Z" fill="#81818B"/>
<path d="M103.163 9.80029V27.1108H99.7581L90.8231 16.6008V27.1108H86.7271V9.80029H90.1574L99.0666 20.3102V9.80029H103.163Z" fill="#81818B"/>
<path d="M111.396 13.6089C113.529 13.6089 115.168 14.1034 116.311 15.0926C117.455 16.0653 118.026 17.5408 118.026 19.5191V27.1111H114.289V25.454C113.538 26.6906 112.139 27.3086 110.091 27.3086C109.032 27.3086 108.11 27.1358 107.325 26.7895C106.558 26.4432 105.969 25.9653 105.559 25.3551C105.15 24.7453 104.945 24.0527 104.945 23.2779C104.945 22.0414 105.423 21.0688 106.378 20.3599C107.351 19.651 108.845 19.2966 110.859 19.2966H114.033C114.033 18.4557 113.769 17.8128 113.239 17.3677C112.71 16.906 111.917 16.6753 110.859 16.6753C110.125 16.6753 109.399 16.7907 108.683 17.0215C107.983 17.2358 107.385 17.5326 106.89 17.9117L105.457 15.2162C106.208 14.7052 107.103 14.3096 108.144 14.0293C109.203 13.749 110.287 13.6089 111.396 13.6089ZM111.089 24.7123C111.772 24.7123 112.377 24.5639 112.906 24.2671C113.435 23.9537 113.811 23.5006 114.033 22.9068V21.5471H111.294C109.655 21.5471 108.836 22.0662 108.836 23.1048C108.836 23.5995 109.032 23.9949 109.425 24.2918C109.834 24.5721 110.389 24.7123 111.089 24.7123Z" fill="#81818B"/>
<path d="M129.244 26.4678C128.852 26.7481 128.365 26.9625 127.785 27.1109C127.222 27.2425 126.624 27.3084 125.993 27.3084C124.355 27.3084 123.083 26.9048 122.179 26.0971C121.291 25.289 120.847 24.102 120.847 22.536V17.0708H118.723V14.1033H120.847V10.8638H124.841V14.1033H128.271V17.0708H124.841V22.4865C124.841 23.0469 124.986 23.4839 125.276 23.7972C125.583 24.0937 126.01 24.2421 126.556 24.2421C127.188 24.2421 127.725 24.0772 128.169 23.7478L129.244 26.4678Z" fill="#81818B"/>
<path d="M144.082 13.8066V27.111H140.293V25.5282C139.764 26.105 139.132 26.5503 138.398 26.8637C137.664 27.1605 136.871 27.3085 136.017 27.3085C134.208 27.3085 132.775 26.806 131.716 25.8003C130.658 24.7947 130.129 23.3026 130.129 21.3244V13.8066H134.123V20.7554C134.123 22.8985 135.053 23.9701 136.913 23.9701C137.869 23.9701 138.637 23.6737 139.218 23.0799C139.797 22.4701 140.088 21.5718 140.088 20.3846V13.8066H144.082Z" fill="#81818B"/>
<path d="M150.316 15.5625C150.793 14.9195 151.434 14.4331 152.236 14.1034C153.055 13.7737 153.994 13.6089 155.052 13.6089V17.1699C154.608 17.1369 154.309 17.1204 154.156 17.1204C153.012 17.1204 152.116 17.4337 151.468 18.0601C150.819 18.67 150.495 19.5933 150.495 20.8297V27.1111H146.501V13.8067H150.316V15.5625Z" fill="#81818B"/>
<path d="M169.513 20.5085C169.513 20.5575 169.488 20.9039 169.436 21.5471H159.017C159.204 22.3713 159.648 23.0223 160.348 23.5006C161.048 23.9784 161.918 24.2176 162.959 24.2176C163.676 24.2176 164.307 24.1186 164.853 23.9207C165.417 23.7067 165.937 23.3769 166.415 22.9316L168.54 25.1572C167.243 26.5916 165.348 27.3086 162.856 27.3086C161.304 27.3086 159.93 27.0204 158.735 26.4432C157.54 25.8499 156.619 25.0335 155.97 23.9949C155.321 22.9564 154.997 21.7776 154.997 20.4588C154.997 19.1564 155.313 17.9859 155.945 16.9473C156.593 15.8922 157.472 15.0762 158.581 14.4991C159.708 13.9056 160.962 13.6089 162.345 13.6089C163.693 13.6089 164.913 13.8891 166.006 14.4496C167.098 15.0102 167.951 15.818 168.566 16.8731C169.197 17.9117 169.513 19.1234 169.513 20.5085ZM162.37 16.5269C161.466 16.5269 160.706 16.7742 160.092 17.2688C159.477 17.7634 159.102 18.4393 158.965 19.2966H165.75C165.613 18.4557 165.237 17.788 164.623 17.2935C164.009 16.7824 163.258 16.5269 162.37 16.5269Z" fill="#81818B"/>
<path fill-rule="evenodd" clip-rule="evenodd" d="M18.8426 0.255032C18.2341 -0.0850106 17.4839 -0.0850106 16.8754 0.255032C12.5534 2.67008 9.63832 7.18871 9.63832 12.3673C9.63832 13.1054 9.69759 13.83 9.81162 14.5371C6.83639 13.5611 3.61489 13.9163 0.983589 15.3809C0.374536 15.7199 -0.000629208 16.3475 7.92203e-07 17.0265C0.00309829 20.609 1.92964 24.1004 5.37994 26.0246C7.07264 26.9688 8.92017 27.4173 10.7426 27.4182C10.4653 28.1772 10.3144 28.9936 10.3144 29.8441C10.3144 33.8691 13.6922 37.1315 17.8587 37.1315C22.0255 37.1315 25.403 33.8691 25.403 29.8441C25.403 28.9915 25.2514 28.1735 24.9731 27.4132C26.6869 27.3608 28.413 26.9114 30.0025 26.0246C33.4532 24.1004 35.3794 20.609 35.382 17.0267C35.3831 16.3476 35.0077 15.7201 34.3987 15.381C31.8713 13.9741 28.7988 13.5909 25.9237 14.4281C26.0266 13.7556 26.0795 13.0675 26.0795 12.3673C26.0795 7.18871 23.1647 2.67008 18.8426 0.255032ZM13.5671 12.3673C13.5671 9.00447 15.2527 6.02016 17.859 4.16256C20.4653 6.02016 22.151 9.00447 22.151 12.3673C22.151 15.7301 20.4653 18.7144 17.859 20.572C15.2527 18.7144 13.5671 15.7301 13.5671 12.3673ZM25.6061 18.6692C27.4202 17.6575 29.5163 17.5398 31.3474 18.18C31.0061 20.0318 29.8522 21.7263 28.0382 22.7381C26.2242 23.7499 24.1281 23.8674 22.297 23.2275C22.6384 21.3754 23.7921 19.6809 25.6061 18.6692ZM4.0351 18.1798C5.86609 17.5397 7.9622 17.6574 9.77624 18.6691C11.5904 19.6808 12.7439 21.3754 13.0855 23.2271C11.2544 23.8674 9.15836 23.7499 7.34428 22.7381C5.53025 21.7263 4.37666 20.0317 4.0351 18.1798ZM14.2431 29.8441C14.2431 27.9154 15.8619 26.3515 17.8587 26.3515C19.8556 26.3515 21.4744 27.9154 21.4744 29.8441C21.4744 31.7729 19.8556 33.3368 17.8587 33.3368C15.8619 33.3368 14.2431 31.7729 14.2431 29.8441Z" fill="#81818B"/>
</svg>
